<?xml version="1.0" standalone="no"?>
<!DOCTYPE svg PUBLIC "-//W3C//DTD SVG 20010904//EN"
 "http://www.w3.org/TR/2001/REC-SVG-20010904/DTD/svg10.dtd">
<svg version="1.0" xmlns="http://www.w3.org/2000/svg"
 width="120.000000pt" height="120.000000pt" viewBox="0 0 120.000000 120.000000"
 preserveAspectRatio="xMidYMid meet">
<metadata>
Created by potrace 1.14, written by Peter Selinger 2001-2017
</metadata>
<g transform="translate(0.000000,120.000000) scale(0.100000,-0.100000)"
fill="#000000" stroke="none">
<path d="M310 847 c-94 -31 -157 -149 -147 -274 13 -170 139 -268 298 -234
101 22 151 85 165 209 l7 62 -112 0 -111 0 0 -35 0 -35 61 0 62 0 -7 -32 c-17
-86 -140 -122 -208 -61 -78 68 -74 256 5 308 61 40 152 23 185 -35 15 -27 22
-30 66 -30 48 0 48 0 41 28 -9 40 -55 93 -101 116 -46 24 -151 31 -204 13z"/>
<path d="M784 842 c-76 -36 -110 -114 -81 -183 22 -53 49 -70 153 -98 77 -21
101 -32 117 -53 19 -25 19 -28 4 -52 -38 -58 -145 -55 -189 5 -18 24 -29 29
-65 29 -47 0 -50 -5 -29 -53 54 -130 307 -141 371 -17 22 43 19 122 -5 153
-22 27 -98 60 -166 71 -95 16 -133 72 -78 115 49 38 138 20 162 -33 10 -22 18
-26 52 -26 36 0 40 2 40 26 0 37 -29 82 -69 106 -49 31 -162 35 -217 10z"/>
</g>
</svg>
